<svg width="425" height="121" viewBox="0 0 425 121" fill="none" xmlns="http://www.w3.org/2000/svg">
<path d="M0.5 30H17V48.7903L12.0133 65.39L17 82.7995V121H0.5V30Z" fill="#111111"/>
<path fill-rule="evenodd" clip-rule="evenodd" d="M34.8987 96.8796C54.3667 96.8796 70.1486 81.4334 70.1486 62.3796C70.1486 43.3258 54.3667 27.8796 34.8987 27.8796C22.5606 27.8796 12.703 36.0411 6.40506 45.4357C4.33619 48.5219 5.86044 51.3197 7.56124 54.4416C8.85236 56.8116 10.2452 59.3683 10.2452 62.3796C10.2452 65.4819 9.15963 68.4885 8.12702 71.3484C6.55125 75.7127 5.09885 79.7352 7.81588 83.2345C14.2538 91.526 23.4375 96.8796 34.8987 96.8796ZM34.995 80.9754C45.0742 80.9754 53.245 72.6498 53.245 62.3796C53.245 52.1094 45.0742 43.7838 34.995 43.7838C24.9158 43.7838 16.745 52.1094 16.745 62.3796C16.745 72.6498 24.9158 80.9754 34.995 80.9754Z" fill="#111111"/>
<path d="M273.061 0V94.9H289.831V0H273.061Z" fill="#111111"/>
<path d="M99.8305 52.65C97.5772 51.5233 96.4505 50.0933 96.4505 48.36C96.4505 46.7133 97.1439 45.4133 98.5305 44.46C100.004 43.5067 101.824 43.03 103.991 43.03C108.844 43.03 112.311 45.24 114.391 49.66L128.691 41.86C126.177 37.44 122.754 34.06 118.421 31.72C114.087 29.2933 109.277 28.08 103.991 28.08C96.9705 28.08 91.0772 29.9433 86.3105 33.67C81.6305 37.31 79.2905 42.3367 79.2905 48.75C79.2905 52.9967 80.4172 56.55 82.6705 59.41C85.0105 62.1833 87.8272 64.22 91.1205 65.52C94.4139 66.82 97.7072 67.9033 101.001 68.77C104.294 69.6367 107.067 70.6333 109.321 71.76C111.661 72.8 112.831 74.1867 112.831 75.92C112.831 79.6467 109.841 81.51 103.861 81.51C97.2739 81.51 93.0272 78.6933 91.1205 73.06L76.5605 81.25C81.4139 91.5633 90.5139 96.72 103.861 96.72C111.314 96.72 117.511 94.9433 122.451 91.39C127.477 87.75 129.991 82.5933 129.991 75.92C129.991 71.5 128.821 67.8167 126.481 64.87C124.227 61.9233 121.454 59.8433 118.161 58.63C114.867 57.33 111.574 56.29 108.281 55.51C104.987 54.6433 102.171 53.69 99.8305 52.65Z" fill="#111111"/>
<path d="M198.429 29.9H180.489L166.059 73.58L149.159 29.9H130.829L157.479 92.82C155.919 97.24 153.796 100.447 151.109 102.44C148.509 104.433 144.956 105.387 140.449 105.3V120.9C148.769 121.333 155.703 119.427 161.249 115.18C166.883 111.02 171.389 104.26 174.769 94.9L198.429 29.9Z" fill="#111111"/>
<path d="M234.811 96.72C225.018 96.72 216.828 93.4267 210.241 86.84C203.741 80.2533 200.491 72.1067 200.491 62.4C200.491 52.6933 203.741 44.5467 210.241 37.96C216.828 31.3733 225.018 28.08 234.811 28.08C241.138 28.08 246.901 29.5967 252.101 32.63C257.301 35.6633 261.244 39.7367 263.931 44.85L249.501 53.3C248.201 50.6133 246.208 48.49 243.521 46.93C240.921 45.37 237.975 44.59 234.681 44.59C229.654 44.59 225.495 46.28 222.201 49.66C218.908 52.9533 217.261 57.2 217.261 62.4C217.261 67.5133 218.908 71.76 222.201 75.14C225.495 78.4333 229.654 80.08 234.681 80.08C238.061 80.08 241.051 79.3433 243.651 77.87C246.338 76.31 248.331 74.1867 249.631 71.5L264.191 79.82C261.331 84.9333 257.301 89.05 252.101 92.17C246.901 95.2033 241.138 96.72 234.811 96.72Z" fill="#111111"/>
<path fill-rule="evenodd" clip-rule="evenodd" d="M337.68 81.51C327.713 81.51 321.603 77.4367 319.35 69.29H368.36C369.802 37.96 348.643 28.08 336.12 28.08C326.066 28.08 317.833 31.3733 311.42 37.96C305.006 44.46 301.8 52.6067 301.8 62.4C301.8 72.28 305.05 80.47 311.55 86.97C318.05 93.47 326.673 96.72 337.42 96.72H396.189L392.189 81.51H337.68ZM319.074 56.3357C322.656 38.7599 349.185 38.4946 352.103 56.3357H319.074Z" fill="#111111"/>
<path d="M401.813 81.3999H424.719V96.6999H405.719L401.813 81.3999Z" fill="#F2C94C"/>
</svg>
