<?xml version="1.0" encoding="UTF-8"?>
<svg width="24px" height="24px" viewBox="0 0 24 24" version="1.1" xmlns="http://www.w3.org/2000/svg" xmlns:xlink="http://www.w3.org/1999/xlink">
    <!-- Generator: Sketch 54.1 (76490) - https://sketchapp.com -->
    <title>Preview</title>
    <desc>Created with Sketch.</desc>
    <g id="Preview" stroke="none" stroke-width="1" fill="none" fill-rule="evenodd">
        <g id="eye" transform="translate(2.000000, 5.000000)" fill-rule="nonzero">
            <circle id="Oval" fill="#000000" cx="19.3333333" cy="6.66666667" r="1"></circle>
            <circle id="Oval" fill="#000000" cx="0.666666667" cy="6.66666667" r="1"></circle>
            <circle id="Oval" fill="#0B1D59" cx="10" cy="6.66666667" r="2"></circle>
            <path d="M19.8686667,6.272 C19.8686667,6.272 16,0 10,0 C4,0 0.131333333,6.272 0.131333333,6.272 L0.108666667,7.02933333 C0.108,7.02933333 3.33333333,13.3333333 10,13.3333333 C16.6666667,13.3333333 19.892,7.02933333 19.892,7.02933333 L19.8686667,6.272 Z M10,11.3333333 C7.42266667,11.3333333 5.33333333,9.244 5.33333333,6.66666667 C5.33333333,4.08933333 7.42266667,2 10,2 C12.5773333,2 14.6666667,4.08933333 14.6666667,6.66666667 C14.6666667,9.244 12.5773333,11.3333333 10,11.3333333 Z" id="Shape" fill="#0B1D59"></path>
        </g>
    </g>
</svg>