<?xml version="1.0" encoding="UTF-8"?>
<svg width="24px" height="24px" viewBox="0 0 24 24" version="1.1" xmlns="http://www.w3.org/2000/svg" xmlns:xlink="http://www.w3.org/1999/xlink">
    <!-- Generator: Sketch 54.1 (76490) - https://sketchapp.com -->
    <title>Share</title>
    <desc>Created with Sketch.</desc>
    <g id="Share" stroke="none" stroke-width="1" fill="none" fill-rule="evenodd">
        <g id="share" transform="translate(4.000000, 3.000000)" fill="#0B1D59" fill-rule="nonzero">
            <path d="M13.5,12.672 C12.816,12.672 12.204,12.942 11.736,13.365 L5.319,9.63 C5.364,9.423 5.4,9.216 5.4,9 C5.4,8.784 5.364,8.577 5.319,8.37 L11.664,4.671 C12.15,5.121 12.789,5.4 13.5,5.4 C14.994,5.4 16.2,4.194 16.2,2.7 C16.2,1.206 14.994,0 13.5,0 C12.006,0 10.8,1.206 10.8,2.7 C10.8,2.916 10.836,3.123 10.881,3.33 L4.536,7.029 C4.05,6.579 3.411,6.3 2.7,6.3 C1.206,6.3 0,7.506 0,9 C0,10.494 1.206,11.7 2.7,11.7 C3.411,11.7 4.05,11.421 4.536,10.971 L10.944,14.715 C10.899,14.904 10.872,15.102 10.872,15.3 C10.872,16.749 12.051,17.928 13.5,17.928 C14.949,17.928 16.128,16.749 16.128,15.3 C16.128,13.851 14.949,12.672 13.5,12.672 Z" id="Path"></path>
        </g>
    </g>
</svg>