<?xml version="1.0" encoding="UTF-8"?>
<svg width="24px" height="24px" viewBox="0 0 24 24" version="1.1" xmlns="http://www.w3.org/2000/svg" xmlns:xlink="http://www.w3.org/1999/xlink">
    <!-- Generator: Sketch 54.1 (76490) - https://sketchapp.com -->
    <title>Upload</title>
    <desc>Created with Sketch.</desc>
    <g id="Upload" stroke="none" stroke-width="1" fill="none" fill-rule="evenodd">
        <g id="outline-cloud_upload-24px" transform="translate(2.000000, 2.000000)">
            <polygon id="Path" points="0 0 20 0 20 20 0 20"></polygon>
            <path d="M16.125,7.9075 C15.5583333,5.104375 13.0333333,3 10,3 C7.59166667,3 5.5,4.3325 4.45833333,6.2825 C1.95,6.5425 0,8.614375 0,11.125 C0,13.814375 2.24166667,16 5,16 L15.8333333,16 C18.1333333,16 20,14.18 20,11.9375 C20,9.7925 18.2916667,8.05375 16.125,7.9075 Z M15.8333333,14.375 L5,14.375 C3.15833333,14.375 1.66666667,12.920625 1.66666667,11.125 C1.66666667,9.459375 2.94166667,8.07 4.63333333,7.899375 L5.525,7.81 L5.94166667,7.038125 C6.73333333,5.55125 8.28333333,4.625 10,4.625 C12.1833333,4.625 14.0666667,6.13625 14.4916667,8.224375 L14.7416667,9.443125 L16.0166667,9.5325 C17.3166667,9.61375 18.3333333,10.678125 18.3333333,11.9375 C18.3333333,13.278125 17.2083333,14.375 15.8333333,14.375 Z M6.66666667,10.3125 L8.79166667,10.3125 L8.79166667,12.75 L11.2083333,12.75 L11.2083333,10.3125 L13.3333333,10.3125 L10,7.0625 L6.66666667,10.3125 Z" id="Shape" fill="#0B1D59" fill-rule="nonzero"></path>
        </g>
    </g>
</svg>